<?xml version="1.0" encoding="utf-8"?>
<!-- Generator: Adobe Illustrator 19.2.1, SVG Export Plug-In . SVG Version: 6.00 Build 0)  -->
<svg version="1.1" id="Layer_1" xmlns="http://www.w3.org/2000/svg" xmlns:xlink="http://www.w3.org/1999/xlink" x="0px" y="0px"
	 viewBox="0 0 540 350" style="enable-background:new 0 0 540 350;" xml:space="preserve">
<style type="text/css">
	.st0{fill:#4ED472;}
	.st1{fill:#FFFFFF;}
</style>
<g transform="translate(0.000000,225.000000) scale(0.100000,-0.100000)">
	<path id="node1" class="st0" d="M2356.19,1840.86c-154.54-19.32-274.73-81.56-392.78-199.61
		c-115.9-113.76-158.83-197.46-176-332.68c-15.02-122.34,45.07-264,139.51-332.68c68.68-51.51,266.14-60.1,309.07-12.88
		c21.46,23.61,21.46,30.05,2.15,38.63c-49.37,17.17-30.05,92.29,27.9,118.05c115.9,53.66,165.27-115.9,68.68-236.1
		c-62.24-79.41-145.95-137.36-328.39-233.95c-233.95-120.19-397.07-270.44-476.48-433.56c-51.51-103.02-57.95-145.95-57.95-313.36
		c0-173.85,6.44-206.05,66.54-324.1c165.27-319.8,558.04-502.24,804.87-375.61c77.27,38.63,79.41,38.63,139.51,0
		c53.66-36.49,107.32-40.78,512.97-40.78c412.09,0,455.02,4.29,487.22,38.63c88,96.58-6.44,184.58-199.61,186.73h-120.19
		l57.95,92.29c148.1,231.8,137.36,551.61-23.61,712.58c-79.41,79.41-259.71,150.24-382.05,150.24
		c-72.98,0-248.97-70.83-315.51-124.49c-42.93-36.49-42.93-36.49-2.15,12.88c23.61,25.76,92.29,72.98,156.68,103.02
		c150.24,75.12,313.36,66.54,491.51-25.76c109.46-55.8,238.24-193.17,270.44-287.61c4.29-15.02,45.07-8.59,113.76,21.46
		c105.17,45.07,109.46,45.07,218.93,8.59c139.51-47.22,173.85-27.9,143.8,81.56c-23.61,83.71-126.63,158.83-242.53,178.14
		c-70.83,10.73-96.58,32.19-160.97,128.78c-62.24,94.44-92.29,120.19-165.27,139.51c-49.37,12.88-105.17,34.34-126.63,47.22
		c-27.9,17.17-49.37,12.88-98.73-23.61c-34.34-25.76-135.22-60.1-229.66-77.27c-92.29-17.17-214.63-51.51-270.44-75.12
		c-126.63-55.8-289.75-216.78-356.29-356.29c-30.05-57.95-53.66-90.15-53.66-70.83c0,47.22,120.19,274.73,178.15,336.97
		c90.15,96.58,287.61,197.46,437.85,227.51c139.51,25.76,285.46,83.71,285.46,113.76c0,8.59-17.17,32.19-36.49,55.8
		c-51.51,55.8-47.22,216.78,8.59,326.24c34.34,66.54,45.07,126.63,45.07,266.14v180.29l-94.44,100.88
		C2849.84,1804.37,2622.33,1877.35,2356.19,1840.86z"/>
	<path id="node2" class="st0" d="M3208.28,1606.91c-8.59-27.9-19.32-143.8-21.46-255.41c-4.29-133.07-17.17-225.36-38.63-268.29
		c-19.32-34.34-40.78-103.02-47.22-152.39c-21.46-120.19,51.51-201.75,242.53-274.73c79.41-30.05,154.54-55.8,165.27-55.8
		c10.73,0,85.85,25.76,165.27,55.8c195.32,75.12,261.85,152.39,244.68,285.46c-6.44,53.66-36.49,133.07-64.39,173.85
		c-38.63,60.1-45.07,88-30.05,115.9c23.61,40.78,10.73,246.83-21.46,367.02l-17.17,64.39l-75.12-128.78l-75.12-128.78l-124.49-2.15
		l-124.49-4.29l-55.8,96.58C3229.74,1664.86,3227.6,1667.01,3208.28,1606.91z M3364.96,1044.57c4.29-25.76-6.44-36.49-36.49-36.49
		c-32.19,0-45.07,12.88-45.07,45.07C3283.4,1106.82,3354.23,1100.38,3364.96,1044.57z M3740.57,1063.89
		c15.02-38.63-2.15-55.8-53.66-55.8c-23.61,0-38.63,15.02-38.63,42.93C3648.28,1100.38,3723.4,1111.11,3740.57,1063.89z"/>
	<path id="node3" class="st0" d="M3515.2-37.17c-68.68-27.9-81.56-42.93-81.56-96.58c0-34.34-15.02-92.29-34.34-128.78
		c-30.05-57.95-30.05-68.68-2.15-96.58c47.22-47.22,178.15,0,216.78,75.12c64.39,124.49,66.54,285.46,6.44,281.17
		C3605.35-2.83,3558.13-17.86,3515.2-37.17z"/>
</g>
<g transform="translate(0.000000,225.000000) scale(0.100000,-0.100000)">
	<path id="node5" class="st1" d="M3283.4,1053.16c0-32.19,12.88-45.07,45.07-45.07c30.05,0,40.78,10.73,36.49,36.49
		C3354.23,1100.38,3283.4,1106.82,3283.4,1053.16z"/>
	<path id="node6" class="st1" d="M3648.28,1051.01c0-27.9,15.02-42.93,38.63-42.93c51.51,0,68.68,17.17,53.66,55.8
		C3723.4,1111.11,3648.28,1100.38,3648.28,1051.01z"/>
</g>
</svg>
