<?xml version="1.0" encoding="utf-8"?>
<!-- Generator: Adobe Illustrator 19.2.1, SVG Export Plug-In . SVG Version: 6.00 Build 0)  -->
<svg version="1.1" id="Layer_1" xmlns="http://www.w3.org/2000/svg" xmlns:xlink="http://www.w3.org/1999/xlink" x="0px" y="0px"
	 viewBox="0 0 540 350" style="enable-background:new 0 0 540 350;" xml:space="preserve">
<style type="text/css">
	.st0{fill:#4ED472;}
	.st1{fill:#FFFFFF;}
</style>
<g transform="translate(0.000000,225.000000) scale(0.100000,-0.100000)">
	<path id="node1" class="st0" d="M2571.34,1147.29c-56.87-7.11-101.1-30.01-144.54-73.45c-42.65-41.86-58.45-72.66-64.76-122.42
		c-5.53-45.02,16.59-97.15,51.34-122.42c25.27-18.96,97.94-22.11,113.73-4.74c7.9,8.69,7.9,11.06,0.79,14.22
		c-18.17,6.32-11.06,33.96,10.27,43.44c42.65,19.75,60.82-42.65,25.27-86.88c-22.9-29.22-53.71-50.55-120.84-86.09
		c-86.09-44.23-146.12-99.52-175.34-159.54c-18.96-37.91-21.32-53.71-21.32-115.31c0-63.97,2.37-75.82,24.48-119.26
		c60.82-117.68,205.35-184.82,296.18-138.22c28.43,14.22,29.22,14.22,51.34,0c19.75-13.43,39.49-15.01,188.77-15.01
		c151.64,0,167.44,1.58,179.29,14.22c32.38,35.54-2.37,67.92-73.45,68.71h-44.23l21.33,33.96c54.5,85.3,50.55,202.98-8.69,262.22
		c-29.22,29.22-95.57,55.29-140.59,55.29c-26.85,0-91.62-26.06-116.1-45.81c-15.8-13.43-15.8-13.43-0.79,4.74
		c8.69,9.48,33.96,26.85,57.66,37.91c55.29,27.64,115.31,24.48,180.87-9.48c40.28-20.54,87.67-71.08,99.52-105.84
		c1.58-5.53,16.59-3.16,41.86,7.9c38.7,16.59,40.28,16.59,80.56,3.16c51.34-17.38,63.97-10.27,52.92,30.01
		c-8.69,30.8-46.6,58.45-89.25,65.55c-26.06,3.95-35.54,11.85-59.24,47.39c-22.9,34.75-33.96,44.23-60.82,51.34
		c-18.17,4.74-38.7,12.64-46.6,17.38c-10.27,6.32-18.17,4.74-36.33-8.69c-12.64-9.48-49.76-22.11-84.51-28.43
		c-33.96-6.32-78.98-18.96-99.52-27.64c-46.6-20.54-106.62-79.77-131.11-131.11c-11.06-21.32-19.75-33.17-19.75-26.06
		c0,17.38,44.23,101.1,65.55,124c33.17,35.54,105.83,72.66,161.12,83.72c51.34,9.48,105.05,30.8,105.05,41.86
		c0,3.16-6.32,11.85-13.43,20.54c-18.96,20.54-17.38,79.77,3.16,120.05c12.64,24.48,16.59,46.6,16.59,97.94v66.34l-34.75,37.12
		C2752.99,1133.87,2669.27,1160.72,2571.34,1147.29z"/>
	<path id="node2" class="st0" d="M2884.89,1061.2c-3.16-10.27-7.11-52.92-7.9-93.99c-1.58-48.97-6.32-82.93-14.22-98.73
		c-7.11-12.64-15.01-37.91-17.38-56.08c-7.9-44.23,18.96-74.24,89.25-101.1c29.22-11.06,56.87-20.54,60.82-20.54
		s31.59,9.48,60.82,20.54c71.87,27.64,96.36,56.08,90.04,105.05c-2.37,19.75-13.43,48.97-23.69,63.97
		c-14.22,22.11-16.59,32.38-11.06,42.65c8.69,15.01,3.95,90.83-7.9,135.06l-6.32,23.69l-27.64-47.39l-27.64-47.39l-45.81-0.79
		l-45.81-1.58l-20.54,35.54C2892.79,1082.53,2892,1083.32,2884.89,1061.2z M2942.55,854.27c1.58-9.48-2.37-13.43-13.43-13.43
		c-11.85,0-16.59,4.74-16.59,16.59C2912.54,877.18,2938.6,874.81,2942.55,854.27z M3080.77,861.38
		c5.53-14.22-0.79-20.54-19.75-20.54c-8.69,0-14.22,5.53-14.22,15.8C3046.8,874.81,3074.45,878.76,3080.77,861.38z"/>
	<path id="node3" class="st0" d="M2997.84,456.21c-25.27-10.27-30.01-15.8-30.01-35.54c0-12.64-5.53-33.96-12.64-47.39
		c-11.06-21.32-11.06-25.27-0.79-35.54c17.38-17.38,65.55,0,79.77,27.64c23.69,45.81,24.48,105.05,2.37,103.47
		C3031.01,468.84,3013.63,463.31,2997.84,456.21z"/>
</g>
<g transform="translate(0.000000,225.000000) scale(0.100000,-0.100000)">
	<path id="node5" class="st1" d="M2912.54,857.43c0-11.85,4.74-16.59,16.59-16.59c11.06,0,15.01,3.95,13.43,13.43
		C2938.6,874.81,2912.54,877.18,2912.54,857.43z"/>
	<path id="node6" class="st1" d="M3046.8,856.64c0-10.27,5.53-15.8,14.22-15.8c18.96,0,25.27,6.32,19.75,20.54
		C3074.45,878.76,3046.8,874.81,3046.8,856.64z"/>
</g>
</svg>
