<?xml version="1.0" encoding="utf-8"?>
<!-- Generator: Adobe Illustrator 19.2.1, SVG Export Plug-In . SVG Version: 6.00 Build 0)  -->
<svg version="1.1" id="Layer_1" xmlns="http://www.w3.org/2000/svg" xmlns:xlink="http://www.w3.org/1999/xlink" x="0px" y="0px"
	 viewBox="0 0 160 160" style="enable-background:new 0 0 160 160;" xml:space="preserve">
<style type="text/css">
	.st0{fill:#4ED472;}
	.st1{fill:#FFFFFF;}
</style>
<g transform="translate(0.000000,225.000000) scale(0.100000,-0.100000)">
	<path id="node1" class="st0" d="M601.53,2211.01c-88.56-11.07-157.44-46.73-225.09-114.38c-66.42-65.19-91.02-113.15-100.85-190.64
		c-8.61-70.11,25.84-151.29,79.95-190.64c39.35-29.53,152.52-34.43,177.11-7.38c12.3,13.53,12.3,17.22,1.23,22.14
		c-28.3,9.84-17.22,52.89,15.99,67.65c66.42,30.76,94.71-66.42,39.35-135.3c-35.66-45.5-83.64-78.72-188.18-134.07
		c-134.07-68.88-227.55-154.98-273.06-248.45c-29.53-59.04-33.2-83.64-33.2-179.57c0-99.62,3.69-118.07,38.12-185.72
		c94.71-183.26,319.79-287.82,461.24-215.25c44.27,22.14,45.5,22.14,79.95,0c30.76-20.91,61.5-23.38,293.97-23.38
		c236.15,0,260.75,2.46,279.21,22.14c50.43,55.35-3.69,105.77-114.38,107h-68.88l33.22,52.89c84.87,132.84,78.72,316.1-13.53,408.35
		c-45.5,45.5-148.83,86.1-218.94,86.1c-41.81,0-142.68-40.58-180.8-71.34c-24.61-20.91-24.61-20.91-1.23,7.38
		c13.53,14.76,52.89,41.81,89.79,59.04c86.1,43.04,179.57,38.12,281.67-14.76c62.73-31.99,136.53-110.69,154.98-164.82
		c2.46-8.61,25.84-4.92,65.19,12.3c60.27,25.84,62.73,25.84,125.46,4.92c79.95-27.07,99.62-15.99,82.41,46.73
		c-13.53,47.96-72.57,91.02-138.99,102.08c-40.58,6.15-55.35,18.45-92.25,73.8c-35.66,54.12-52.89,68.88-94.71,79.95
		c-28.3,7.38-60.27,19.68-72.57,27.07c-15.99,9.84-28.3,7.38-56.58-13.53c-19.68-14.76-77.49-34.43-131.61-44.27
		c-52.89-9.84-123-29.53-154.98-43.04c-72.57-31.99-166.04-124.23-204.18-204.18c-17.22-33.2-30.76-51.66-30.76-40.58
		c0,27.07,68.88,157.44,102.08,193.1c51.66,55.35,164.81,113.15,250.91,130.38c79.95,14.76,163.59,47.96,163.59,65.19
		c0,4.92-9.84,18.45-20.91,31.99c-29.53,31.99-27.07,124.23,4.92,186.95c19.68,38.12,25.84,72.57,25.84,152.52v103.31l-54.12,57.81
		C884.41,2190.11,754.03,2231.92,601.53,2211.01z"/>
	<path id="node2" class="st0" d="M1089.82,2076.94c-4.92-15.99-11.07-82.41-12.3-146.37c-2.46-76.26-9.84-129.15-22.14-153.75
		c-11.07-19.68-23.38-59.04-27.07-87.33c-12.3-68.88,29.53-115.61,138.99-157.44c45.5-17.22,88.56-31.99,94.71-31.99
		c6.15,0,49.2,14.76,94.72,31.99c111.92,43.04,150.06,87.33,140.22,163.59c-3.69,30.76-20.91,76.26-36.89,99.62
		c-22.14,34.43-25.84,50.43-17.22,66.42c13.53,23.38,6.15,141.45-12.3,210.33l-9.84,36.89l-43.04-73.8l-43.04-73.8l-71.34-1.23
		l-71.34-2.46l-31.99,55.35C1102.12,2110.16,1100.89,2111.39,1089.82,2076.94z M1179.61,1754.69c2.46-14.76-3.69-20.91-20.91-20.91
		c-18.45,0-25.84,7.38-25.84,25.84C1132.88,1790.37,1173.46,1786.68,1179.61,1754.69z M1394.86,1765.76
		c8.61-22.14-1.23-31.99-30.76-31.99c-13.53,0-22.14,8.61-22.14,24.61C1341.96,1786.68,1385.02,1792.83,1394.86,1765.76z"/>
	<path id="node3" class="st0" d="M1265.72,1134.79c-39.35-15.99-46.73-24.61-46.73-55.35c0-19.68-8.61-52.89-19.68-73.8
		c-17.22-33.2-17.22-39.35-1.23-55.35c27.07-27.07,102.08,0,124.23,43.04c36.89,71.34,38.12,163.59,3.69,161.13
		C1317.37,1154.46,1290.31,1145.85,1265.72,1134.79z"/>
</g>
<g transform="translate(0.000000,225.000000) scale(0.100000,-0.100000)">
	<path id="node5" class="st1" d="M1132.88,1759.61c0-18.45,7.38-25.84,25.84-25.84c17.22,0,23.38,6.15,20.91,20.91
		C1173.46,1786.68,1132.88,1790.37,1132.88,1759.61z"/>
	<path id="node6" class="st1" d="M1341.96,1758.38c0-15.99,8.61-24.61,22.14-24.61c29.53,0,39.35,9.84,30.76,31.99
		C1385.02,1792.83,1341.96,1786.68,1341.96,1758.38z"/>
</g>
</svg>
