<svg xmlns="http://www.w3.org/2000/svg" viewBox="0 0 285 137"><defs><style>.a{fill:#4ed472;}.b{fill:#fff;}.c{fill:#787878;}</style></defs><title>squizzle-logo</title><circle class="a" cx="69" cy="69" r="69"/><path class="b" d="M149,168c-4,8-4,21-2,28s2,6,0,6-12,3-16,6l-4,3v-9c-1-11-4-18-10-26s-20-13-30-13H83l2,5c6,11,5,22-1,35s-7,24-1,37,26,25,42,23,22-8,29-19l9-10c4-4,13-8,17-8s6-1,6-2-3-3-6-3-13-4-18-9l-6-5h5l9-3c5-2,12-8,12-9s-11-13-16-15l-6-3-3-4-3-6C152,163,152,163,149,168Zm-50,2c12,4,20,15,23,28s0,15-5,25-6,23-3,33v3h-6c-17-4-29-23-26-40a74,74,0,0,1,5-15c3-7,4-10,4-16a43,43,0,0,0-2-18c-1-1,0-2,2-1Zm57,7c5,0,21,11,21,14s-14,10-20,10-5-2-7-11-1-11,1-17v0Zm0,34,11,9,5,2-5,2c-7,3-12,8-18,17s-13,14-22,16-8,2-11-8,8-40,28-44h4Z" transform="translate(-58 -138)"/><path class="c" d="M209,200c-4,0-11-1-11-5a4,4,0,0,1,4-4h2v2c0,3,3,4,5,4s5-1,5-3-6-2-10-5-4-4-4-10,5-12,9-12,5,2,6,3h6a7,7,0,0,0-2,5,6,6,0,0,0,2,5s-1,3-5,3-4-2-4-5a12,12,0,0,1,1-6c0-1-1-2-2-2s-3,2-3,7,1,6,3,7,10,0,10,7S214,200,209,200Z" transform="translate(-58 -138)"/><path class="c" d="M243,196c-1,2-3,4-5,4a12,12,0,0,1,1,6c0,5-3,7-5,7s-4-3-4-6,0-5,0-8h-3c-4,0-6-3-6-8s3-11,7-11a4,4,0,0,1,4,3h5c0,1-2,11-2,14s4-2,5-4l2-5h1s0,0,0,2A14,14,0,0,1,243,196Zm-12-13c-1,0-3,4-3,9s1,5,2,5,2-3,2-4a42,42,0,0,1,0-6C233,184,232,183,231,183Zm5,18a40,40,0,0,0-1,5c0,2,0,3,1,3s1-2,1-4S238,202,237,201Z" transform="translate(-58 -138)"/><path class="c" d="M267,196c-1,2-3,4-7,4a5,5,0,0,1-5-4,7,7,0,0,1-6,4c-3,0-6-2-6-7s1-4,1-5h-1c0-1,4-3,7-3h2c0,1-1,4-2,6a21,21,0,0,0-1,6c0,1,1,2,1,2s4-8,4-12h-1c0-1,4-3,7-3h2c0,1-1,4-2,6a25,25,0,0,0-1,7c0,1,1,2,1,2s3-2,4-4l3-6h0s0,1,0,2A14,14,0,0,1,267,196Z" transform="translate(-58 -138)"/><path class="c" d="M279,196c-1,2-3,4-7,4s-6-2-6-7,1-6,1-7h-1c0-1,4-3,7-3h2c0,1-1,4-2,6a27,27,0,0,0-1,7c0,1,1,2,2,2s3-2,4-4l3-6h0s0,1,0,2A14,14,0,0,1,279,196Zm-9-17c-1,0-3-1-3-3s3-4,5-4,3,1,3,2S273,179,271,179Z" transform="translate(-58 -138)"/><path class="c" d="M295,197l-2,2a10,10,0,0,1,1,4c0,6-4,13-9,13s-6-2-6-5,5-8,9-11l-4-2h-3s-1-1-1-3h0c3-2,7-5,8-8h-3l-3-2-4,7h-1s-1-1-1-1v-2l2-5c1-2,1-4,1-5h9c1,0,3,2,3,4s-5,9-7,10h2a5,5,0,0,1,4,2l2-2,3-7h1s0,0,0,2S296,195,295,197Zm-5,5c-3,3-8,5-8,8a3,3,0,0,0,3,3c3,0,5-4,5-8A12,12,0,0,0,290,202Z" transform="translate(-58 -138)"/><path class="c" d="M312,197l-2,2a10,10,0,0,1,1,4c0,6-4,13-9,13s-6-2-6-5,5-8,9-11l-4-2h-3s-1-1-1-3h0c3-2,7-5,8-8h-3l-3-2-4,7h-1s-1-1-1-1v-2l2-5c1-2,1-4,1-5h9c1,0,3,2,3,4s-5,9-7,10h2a5,5,0,0,1,4,2l2-2,3-7h1s0,0,0,2S313,195,312,197Zm-5,5c-3,3-8,5-8,8a3,3,0,0,0,3,3c3,0,5-4,5-8A12,12,0,0,0,307,202Z" transform="translate(-58 -138)"/><path class="c" d="M325,196c-2,2-3,4-6,4s-8-2-8-12,5-19,8-19,4,1,4,6-2,11-6,14,1,8,3,8,3-1,4-4l2-4h0s0,1,0,2A13,13,0,0,1,325,196Zm-4-23c-1,0-3,6-3,13h0c3-3,4-9,4-12h-1Z" transform="translate(-58 -138)"/><path class="c" d="M341,195a9,9,0,0,1-8,5c-5,0-9-3-9-9s4-10,7-10,5,2,5,4-2,8-4,8h-2c0,4,2,6,4,6s4-2,6-4l2-5h0s0,0,0,2A14,14,0,0,1,341,195Zm-7-12c-1,0-3,2-3,6h2c2,0,3-4,3-6A1,1,0,0,0,334,184Z" transform="translate(-58 -138)"/><path class="c" d="M221,247c-4,0-11-1-11-5a4,4,0,0,1,4-4h2v2c0,3,3,4,5,4s5-1,5-3-6-2-10-5-4-4-4-10,5-12,9-12,5,2,6,3h6a7,7,0,0,0-2,5,6,6,0,0,0,2,5s-1,3-5,3-4-2-4-5a12,12,0,0,1,1-6c0-1-1-2-2-2s-3,2-3,7,1,6,3,7,10,0,10,7S226,247,221,247Z" transform="translate(-58 -138)"/><path class="c" d="M255,243c-1,2-3,4-5,4a12,12,0,0,1,1,6c0,5-3,7-5,7s-4-3-4-6,0-5,0-8h-3c-4,0-6-3-6-8s3-11,7-11a4,4,0,0,1,4,3h5c0,1-2,11-2,14s4-2,5-4l2-5h1s0,0,0,2A14,14,0,0,1,255,243Zm-12-13c-1,0-3,4-3,9s1,5,2,5,2-3,2-4a42,42,0,0,1,0-6C245,232,244,230,243,230Zm5,18a40,40,0,0,0-1,5c0,2,0,3,1,3s1-2,1-4S250,249,249,248Z" transform="translate(-58 -138)"/><path class="c" d="M279,243c-1,2-3,4-7,4a5,5,0,0,1-5-4,7,7,0,0,1-6,4c-3,0-6-2-6-7s1-4,1-5h-1c0-1,4-3,7-3h2c0,1-1,4-2,6a21,21,0,0,0-1,6c0,1,1,2,1,2s4-8,4-12h-1c0-1,4-3,7-3h2c0,1-1,4-2,6a25,25,0,0,0-1,7c0,1,1,2,1,2s3-2,4-4l3-6h0s0,1,0,2A14,14,0,0,1,279,243Z" transform="translate(-58 -138)"/><path class="c" d="M298,243c-1,2-3,4-6,4a5,5,0,0,1-4-3,4,4,0,0,1-4,3c-4,0-6-3-6-8s3-11,7-11a4,4,0,0,1,4,3h5c0,1-2,5-2,12s1,2,1,2,3-2,4-4l2-5h1s0,0,0,2A14,14,0,0,1,298,243Zm-12-12c-1,0-3,4-3,9s1,5,2,5,2-3,2-4a49,49,0,0,1,0-6C288,232,287,230,286,230Z" transform="translate(-58 -138)"/><path class="c" d="M317,243c-1,2-3,4-5,4s-4-1-5-3a5,5,0,0,1-5,3c-4,0-6-3-6-8s4-11,8-11h1a54,54,0,0,0,0-7h-1c0-1,4-3,7-3s2,0,2,1v2a131,131,0,0,0-1,18c0,4,1,5,2,5l2-2,3-6h0s0,1,0,2A14,14,0,0,1,317,243Zm-13-12c-1,0-3,4-3,8s1,5,2,5,2-4,2-6S306,231,305,231Z" transform="translate(-58 -138)"/></svg>