<svg xmlns="http://www.w3.org/2000/svg" viewBox="0 0 285.07 137.27"><defs><style>.a{fill:#4ed472;}.b{fill:#fff;}.c{fill:#787878;}</style></defs><title>squizzle-logo</title><circle class="a" cx="68.63" cy="68.63" r="68.63"/><path class="b" d="M149.13,168.41c-3.6,7.7-4.5,20.8-2,28.4,2,6.2,2,6.1-.2,6.1-3.6,0-12,3-16.3,6l-4.4,2.9-0.6-9.2c-0.6-11.1-3.5-18.3-10.3-25.5-7.2-7.7-19.6-13.2-29.7-13.2h-2.9l2.4,4.8c5.6,11,5.3,21.5-.9,35.2-6.4,14.2-6.7,24.3-1.1,36.6,7,15.3,25.7,25.4,41.8,22.5,12.2-2.1,21.5-8.3,28.9-19.2a57.37,57.37,0,0,1,8.5-9.7c4.3-3.9,13.4-8.2,17.2-8.2,3.2,0,6.2-1.2,6.2-2.5s-3-2.5-6.2-2.5c-4.3,0-13.2-4.5-18.4-9.2l-5.6-5.2,5.4-1.3a62.79,62.79,0,0,0,9.3-3.3c4.7-2.3,11.5-7.7,11.5-9.1,0-2.3-11.3-12.7-16.4-15.2a35.87,35.87,0,0,0-6.3-2.7c-0.4,0-1.6-2-2.6-4.4a34.31,34.31,0,0,0-3.2-6.2C151.93,162.51,151.63,162.91,149.13,168.41ZM99,170.51c11.5,4,20.4,14.9,22.8,28.2,1.4,7.3-.1,14.8-4.7,24.5-5.5,11.6-6.3,23-2.5,33.1a8.53,8.53,0,0,1,.9,3.1c-0.2.2-2.8-.4-5.8-1.1-17.1-4.4-29.2-22.8-26.3-39.9a73.54,73.54,0,0,1,4.9-14.6c3.1-6.9,3.9-9.8,4.2-16.2a42.82,42.82,0,0,0-2.4-18.1c-0.6-1.4-.2-1.6,2.2-1C93.93,168.91,96.93,169.81,99,170.51Zm57.1,7.4c4.5,0,20.6,11.3,20.6,14.4,0,2.9-14.2,9.6-20.4,9.6-3.9,0-4.9-1.7-6.6-10.9-1.1-6.1-.8-10.6,1.3-17.1l1.1-3.5,1.4,3.7C154.33,176.21,155.53,177.91,156.13,177.91Zm-0.1,34.3c3.8,3.9,8.2,7.3,11.4,8.8l5.2,2.3-4.9,2.4c-6.5,3.1-12.1,8.3-17.8,16.7s-13,13.8-22.1,16.1c-7.8,1.9-8.3,1.5-10.6-7.5-5-19.3,8.2-40.2,27.9-44.1,2.2-.4,4.3-0.8,4.4-0.9S152.73,208.81,156,212.21Z" transform="translate(-57.7 -138.19)"/><path class="c" d="M209.44,200c-4.41,0-10.73-1-10.73-5.42a3.88,3.88,0,0,1,3.7-3.78,2.87,2.87,0,0,1,2,.86,2.9,2.9,0,0,0-.94,2c0,2.77,2.93,4,5.19,4,2.5,0,5.46-.82,5.46-3.39,0-3.24-6-2.3-9.87-4.8C202,188,200,185.44,200,179.74c0-7.6,5-11.54,8.78-11.54s5.11,1.83,5.58,3.43a21.22,21.22,0,0,1,5.46-.47c0.43,0.08.39,0.27,0.23,0.51a7.43,7.43,0,0,0-1.83,5.11,6.33,6.33,0,0,0,1.64,4.72c0,0.47-1.33,2.69-4.84,2.69-2.22,0-3.59-1.56-3.59-5.11a12,12,0,0,1,1.36-5.81c-0.23-1.25-.86-2-2-2s-2.65,1.68-2.65,7.29c0,3.82,1.09,5.81,2.73,6.75,3.55,2,10.1.43,10.1,7.41C221,198.19,213.85,200,209.44,200Z" transform="translate(-57.7 -138.19)"/><path class="c" d="M243.37,195.61c-1.33,2.22-2.69,4-4.8,4.25a11.82,11.82,0,0,1,1.4,5.77c0,4.88-2.89,7.25-4.87,7.25-2.26,0-3.51-2.54-3.51-6,0-2.42.31-5.38,0.43-8.46a3.59,3.59,0,0,1-3.24,1.44c-3.9,0-5.69-3.16-5.69-7.8,0-7.88,3.12-11.15,7.45-11.15a3.52,3.52,0,0,1,3.74,3,9.9,9.9,0,0,1,4.29-1.4c0.78,0,.94.19,0.94,1.17,0,1.37-2,10.8-2.26,14.08,2.18,0,3.71-1.68,4.84-3.63a36.7,36.7,0,0,0,2.38-5.23,1.9,1.9,0,0,1,.55-1c0.2,0,.47.43,0.47,1.64A13.52,13.52,0,0,1,243.37,195.61Zm-12-13.1c-1.17,0-2.77,4.21-2.77,9.28,0,3.51.51,5.38,1.64,5.38,1.64,0,1.87-3.47,1.87-4.33a42.31,42.31,0,0,1,.43-5.93C232.84,184.38,232.25,182.51,231.4,182.51Zm5.46,18.25a40.06,40.06,0,0,0-.66,5.38c0,1.87.31,3.35,1,3.35s1-2,1-3.63S237.83,201.74,236.86,200.76Z" transform="translate(-57.7 -138.19)"/><path class="c" d="M267,195.81c-1.4,2.11-3.08,4.13-6.75,4.13a5.45,5.45,0,0,1-5.38-3.55,6.56,6.56,0,0,1-5.77,3.55c-3.39,0-6-2.22-6-7.22,0-2.3.58-4.33,0.58-5.5a3.24,3.24,0,0,0-.74-1.21,1.92,1.92,0,0,1-.47-1.13c0-1.25,4.33-2.77,7.37-2.77,1.4,0,2.26.39,2.26,1,0,1.48-.86,3.71-1.64,6.32a20.91,20.91,0,0,0-1.17,6.08c0,1.13.58,2.11,1.48,2.11,2.61,0,4.21-7.76,4.21-11.62a3.15,3.15,0,0,0-.74-1.17,2.13,2.13,0,0,1-.47-1.17c0-1.21,4.29-2.73,7.37-2.73,1.4,0,2.22.39,2.22,1,0,1.48-.82,3.74-1.6,6.32a25.14,25.14,0,0,0-1.33,7.29c0,1.13.58,2.11,1.48,2.11,1.6,0,3.12-2.22,3.94-3.63a44.85,44.85,0,0,0,2.61-5.77,0.67,0.67,0,0,1,.31-0.43c0.27-.08.47,0.78,0.47,1.68A14,14,0,0,1,267,195.81Z" transform="translate(-57.7 -138.19)"/><path class="c" d="M279.21,195.81c-1.4,2.11-3.08,4.13-6.75,4.13-3.39,0-6-2.22-6-7.22,0-2.3.7-5.54,0.7-6.71a3.16,3.16,0,0,0-.74-1.17,2.13,2.13,0,0,1-.47-1.17c0-1.21,4.33-2.73,7.37-2.73,1.4,0,2.26.39,2.26,1,0,1.48-.86,3.74-1.64,6.32a26.51,26.51,0,0,0-1.33,7.29c0,1.13.58,2.11,1.52,2.11,1.56,0,3.08-2.22,3.9-3.63a39.78,39.78,0,0,0,2.61-5.77,0.68,0.68,0,0,1,.31-0.43c0.27-.08.47,0.78,0.47,1.68A13.94,13.94,0,0,1,279.21,195.81Zm-8.66-17c-1.48,0-3.43-.74-3.43-2.53,0-2.46,3.24-3.9,5.34-3.9,1.52,0,3.47.7,3.47,2.5C275.93,177.28,272.66,178.77,270.55,178.77Z" transform="translate(-57.7 -138.19)"/><path class="c" d="M295.08,196.9c-0.7.9-1.09,1.4-1.76,2.15a10.34,10.34,0,0,1,.74,4.17c0,6.08-3.86,13.34-8.62,13.34-3.43,0-5.69-2-5.69-5.23,0-4.87,5.15-7.76,9.32-11a4.67,4.67,0,0,0-3.51-1.64c-1.72,0-2.89,1-3.32,1s-1.17-1.4-1.17-3.12a0.74,0.74,0,0,1,.35-0.74c2.81-1.6,6.94-5.34,8.27-8,0-.16,0-0.19-0.16-0.16a3.45,3.45,0,0,1-2.38.94c-1.68,0-2.89-1.56-3.2-1.56s-2.92,5.42-3.74,6.94a1.1,1.1,0,0,1-.78.86c-0.43,0-.62-0.51-0.58-1.4a4.07,4.07,0,0,1,.31-1.52,44.79,44.79,0,0,0,1.79-4.56c0.7-2.07.62-4.21,1.25-5.5a1.91,1.91,0,0,1,1.91-1.09c1.33,0,2.07,1.05,3.43,1.05,1.56,0,2.26-.7,3.2-0.7s2.57,2.46,2.57,3.71c0,4.72-5.3,9.13-7.14,10.37A6.69,6.69,0,0,1,288,195a5.48,5.48,0,0,1,4.29,2.38,14.2,14.2,0,0,0,1.64-2.11,36.75,36.75,0,0,0,3.16-6.59,1.24,1.24,0,0,1,.51-0.82c0.16,0,.43.47,0.43,1.6C298,191.91,296.37,195.15,295.08,196.9Zm-5,5.3c-3.47,2.69-7.92,5.38-7.92,8.35a3,3,0,0,0,3.28,3.08c3.28,0,5-4.37,5-8.11A12.3,12.3,0,0,0,290.09,202.21Z" transform="translate(-57.7 -138.19)"/><path class="c" d="M311.66,196.9c-0.7.9-1.09,1.4-1.76,2.15a10.34,10.34,0,0,1,.74,4.17c0,6.08-3.86,13.34-8.62,13.34-3.43,0-5.69-2-5.69-5.23,0-4.87,5.15-7.76,9.32-11a4.67,4.67,0,0,0-3.51-1.64c-1.72,0-2.89,1-3.32,1s-1.17-1.4-1.17-3.12a0.74,0.74,0,0,1,.35-0.74c2.81-1.6,6.94-5.34,8.27-8,0-.16,0-0.19-0.16-0.16a3.45,3.45,0,0,1-2.38.94c-1.68,0-2.89-1.56-3.2-1.56s-2.92,5.42-3.74,6.94a1.1,1.1,0,0,1-.78.86c-0.43,0-.62-0.51-0.58-1.4a4.07,4.07,0,0,1,.31-1.52,44.79,44.79,0,0,0,1.79-4.56c0.7-2.07.62-4.21,1.25-5.5a1.91,1.91,0,0,1,1.91-1.09c1.33,0,2.07,1.05,3.43,1.05,1.56,0,2.26-.7,3.2-0.7s2.57,2.46,2.57,3.71c0,4.72-5.3,9.13-7.14,10.37a6.69,6.69,0,0,1,1.83-.31,5.48,5.48,0,0,1,4.29,2.38,14.2,14.2,0,0,0,1.64-2.11,36.75,36.75,0,0,0,3.16-6.59,1.24,1.24,0,0,1,.51-0.82c0.16,0,.43.47,0.43,1.6C314.62,191.91,312.94,195.15,311.66,196.9Zm-5,5.3c-3.47,2.69-7.92,5.38-7.92,8.35a3,3,0,0,0,3.28,3.08c3.28,0,5-4.37,5-8.11A12.3,12.3,0,0,0,306.66,202.21Z" transform="translate(-57.7 -138.19)"/><path class="c" d="M325,196c-1.56,2.3-3.32,4-6,4-3.35,0-7.53-2.46-7.53-11.62,0-12,4.8-19,8.42-19,1.87,0,3.94,1,3.94,5.66,0,3.55-1.87,11.35-5.81,13.69,0.12,4.37,1.09,7.88,2.73,7.88,1.29,0,2.53-1.25,3.71-3.59,1-2,1.56-3.51,1.91-4.37a1.48,1.48,0,0,1,.47-0.78c0.39,0,.43,1.17.43,1.83A13.44,13.44,0,0,1,325,196Zm-3.74-23c-1.13,0-3.24,5.58-3.24,13.1v0.31c2.89-2.89,3.94-9.2,3.94-12.44C321.91,173.19,321.56,173,321.21,173Z" transform="translate(-57.7 -138.19)"/><path class="c" d="M340.75,195.42a8.75,8.75,0,0,1-8,4.64c-5,0-8.93-2.57-8.93-8.74,0-6.86,4.33-10.49,7.29-10.49,3.2,0,5.5,1.68,5.5,4.37,0,3.59-1.79,8-4.37,8a3.27,3.27,0,0,1-2.07-.66c0.31,3.78,1.75,5.62,3.67,5.62,2.14,0,4.41-2.07,5.73-4.37a47.49,47.49,0,0,0,2.46-5.46,0.82,0.82,0,0,1,.31-0.51c0.2,0,.47.43,0.47,1.72A14.09,14.09,0,0,1,340.75,195.42Zm-7.22-11.58c-1.17,0-3.2,1.79-3.43,6.08a2.35,2.35,0,0,0,1.68,1.25c1.64,0,2.85-3.59,2.85-5.85A1.23,1.23,0,0,0,333.53,183.84Z" transform="translate(-57.7 -138.19)"/><path class="c" d="M221.5,247.26c-4.41,0-10.73-1-10.73-5.42a3.88,3.88,0,0,1,3.71-3.78,2.87,2.87,0,0,1,2,.86,2.9,2.9,0,0,0-.94,2c0,2.77,2.93,4,5.19,4,2.5,0,5.46-.82,5.46-3.39,0-3.24-6-2.3-9.87-4.8-2.3-1.48-4.25-4.06-4.25-9.75,0-7.61,5-11.54,8.78-11.54s5.11,1.83,5.58,3.43a21.24,21.24,0,0,1,5.46-.47c0.43,0.08.39,0.27,0.23,0.51a7.42,7.42,0,0,0-1.83,5.11,6.33,6.33,0,0,0,1.64,4.72c0,0.47-1.33,2.69-4.84,2.69-2.22,0-3.59-1.56-3.59-5.11a12,12,0,0,1,1.36-5.81c-0.23-1.25-.86-2-2-2s-2.65,1.68-2.65,7.29c0,3.82,1.09,5.81,2.73,6.75,3.55,2,10.1.43,10.1,7.41C233,245.42,225.9,247.26,221.5,247.26Z" transform="translate(-57.7 -138.19)"/><path class="c" d="M255.43,242.85c-1.33,2.22-2.69,4-4.8,4.25a11.83,11.83,0,0,1,1.4,5.77c0,4.88-2.89,7.25-4.87,7.25-2.26,0-3.51-2.54-3.51-6,0-2.42.31-5.38,0.43-8.46a3.59,3.59,0,0,1-3.24,1.44c-3.9,0-5.69-3.16-5.69-7.8,0-7.88,3.12-11.15,7.45-11.15a3.52,3.52,0,0,1,3.74,3,9.89,9.89,0,0,1,4.29-1.4c0.78,0,.94.2,0.94,1.17,0,1.37-2,10.8-2.26,14.08,2.18,0,3.71-1.68,4.84-3.63a36.62,36.62,0,0,0,2.38-5.23,1.89,1.89,0,0,1,.55-1c0.2,0,.47.43,0.47,1.64A13.51,13.51,0,0,1,255.43,242.85Zm-12-13.1c-1.17,0-2.77,4.21-2.77,9.28,0,3.51.51,5.38,1.64,5.38,1.64,0,1.87-3.47,1.87-4.33a42.32,42.32,0,0,1,.43-5.93C244.9,231.62,244.31,229.75,243.45,229.75ZM248.91,248a40,40,0,0,0-.66,5.38c0,1.87.31,3.35,1,3.35s1-2,1-3.63S249.89,249,248.91,248Z" transform="translate(-57.7 -138.19)"/><path class="c" d="M279.1,243c-1.4,2.11-3.08,4.13-6.75,4.13a5.45,5.45,0,0,1-5.38-3.55,6.56,6.56,0,0,1-5.77,3.55c-3.39,0-6-2.22-6-7.21,0-2.3.58-4.33,0.58-5.5a3.24,3.24,0,0,0-.74-1.21,1.92,1.92,0,0,1-.47-1.13c0-1.25,4.33-2.77,7.37-2.77,1.4,0,2.26.39,2.26,1,0,1.48-.86,3.71-1.64,6.32a20.91,20.91,0,0,0-1.17,6.08c0,1.13.58,2.11,1.48,2.11,2.61,0,4.21-7.76,4.21-11.62a3.15,3.15,0,0,0-.74-1.17,2.13,2.13,0,0,1-.47-1.17c0-1.21,4.29-2.73,7.37-2.73,1.4,0,2.22.39,2.22,1,0,1.48-.82,3.74-1.6,6.32a25.13,25.13,0,0,0-1.33,7.29c0,1.13.58,2.11,1.48,2.11,1.6,0,3.12-2.22,3.94-3.63a44.88,44.88,0,0,0,2.61-5.77,0.67,0.67,0,0,1,.31-0.43c0.27-.08.47,0.78,0.47,1.68A14,14,0,0,1,279.1,243Z" transform="translate(-57.7 -138.19)"/><path class="c" d="M298.05,242.85c-1.48,2.5-2.77,4.29-6,4.29a4.73,4.73,0,0,1-4.45-3,3.91,3.91,0,0,1-4.13,2.89c-3.9,0-5.69-3.16-5.69-7.8,0-7.88,3.12-11.15,7.45-11.15a3.52,3.52,0,0,1,3.74,3,9.89,9.89,0,0,1,4.29-1.4c0.78,0,.94.2,0.94,1.17s-2.26,5.19-2.26,11.62c0,2,.58,2.46,1.13,2.46,1.44,0,2.57-1.68,3.71-3.63a36.83,36.83,0,0,0,2.38-5.23,1.89,1.89,0,0,1,.55-1c0.19,0,.47.43,0.47,1.64A13.51,13.51,0,0,1,298.05,242.85Zm-12-12.44c-1.17,0-2.77,3.55-2.77,8.62,0,3.51.51,5.38,1.64,5.38,1.64,0,1.87-3.47,1.87-4.33a49.29,49.29,0,0,1,.43-5.93C287.56,231.62,286.94,230.41,286.08,230.41Z" transform="translate(-57.7 -138.19)"/><path class="c" d="M317.36,243c-1.21,1.91-3.08,4.13-5.42,4.13-2.73,0-4.13-1.21-5.19-3.43a4.62,4.62,0,0,1-4.64,3.31c-3.9,0-5.69-3.16-5.69-7.8,0-7.8,4.21-10.73,8.31-10.73a2.27,2.27,0,0,1,1.29.35,54.39,54.39,0,0,0-.12-7.1,4.67,4.67,0,0,0-.74-1.17,2.13,2.13,0,0,1-.47-1.17c0-1.25,3.55-2.73,6.59-2.73,1.44,0,2.5,0,2.5,1.4a14.44,14.44,0,0,1-.31,2.11,131.15,131.15,0,0,0-1.09,18.29c0,3.82.9,4.88,1.64,4.88s1.37-.74,2.18-2.14a39.75,39.75,0,0,0,2.61-5.77,0.67,0.67,0,0,1,.31-0.43c0.35,0,.47.78,0.47,1.68A14.11,14.11,0,0,1,317.36,243Zm-12.64-12.21c-1.09,0-2.77,3.94-2.77,8.19,0,3.51.51,5.38,1.64,5.38,1.79,0,2.26-4.29,2.26-5.89C305.85,237.16,306.28,230.84,304.72,230.84Z" transform="translate(-57.7 -138.19)"/></svg>